<svg width="95" height="88" viewBox="0 0 95 88" fill="none" xmlns="http://www.w3.org/2000/svg">
<path d="M1.89536 32.4018C3.41574 32.5221 4.93612 32.5591 6.44968 32.4943C7.67008 32.5776 8.45413 32.6793 9.66771 32.4573C10.2336 32.4573 10.8336 32.4573 11.3926 32.4943L18.0537 55.7389C19.165 59.6238 20.4058 64.2949 21.6194 68.0688C22.6148 64.2949 23.7193 60.5857 24.6806 56.8118C25.7783 58.56 30.7212 66.6351 31.7235 67.7728C29.8963 73.6371 28.0964 79.5291 26.3305 85.4304C23.0171 85.4027 19.7036 85.4212 16.3969 85.4859C12.9062 73.7388 9.2791 62.0842 5.51564 50.4943C5.32474 49.7358 5.06567 48.9126 4.84068 48.1634C3.71573 44.445 2.27717 40.2918 1.04996 36.6104L0.845407 35.889C0.524968 34.8623 0.0272714 33.9465 0 32.9013C0.354528 32.3371 0.299991 32.5221 1.04996 32.4203L1.88854 32.3926L1.89536 32.4018Z" fill="#1F304A"/>
<path d="M31.8463 32.6052L43.1912 32.5312C40.7163 40.079 38.2755 48.2835 35.7461 55.6648C34.6757 53.8333 33.8712 52.3441 32.4531 51.0122C31.0418 50.7162 28.1237 50.8087 26.542 50.7347L31.8395 32.6052H31.8463Z" fill="#1F304A"/>
<path d="M74.7711 32.457L79.6527 32.5033C78.7255 34.2607 77.9142 35.7777 76.8983 37.4611L76.3324 38.4601L74.8257 41.0223L74.3143 41.8363C71.7781 46.0356 67.3601 53.2782 65.1989 57.5978C67.8101 61.9174 70.1691 66.6718 72.603 71.1856C75.1597 75.9215 77.7028 80.6203 80.2049 85.4117C76.0597 85.4949 71.9213 85.5134 67.776 85.4672C66.3034 82.8218 65.0011 80.0653 63.6171 77.3366C61.7967 73.7477 59.915 70.2051 58.1628 66.5515C56.9697 68.3552 56.0152 69.8259 54.9175 71.7683C54.9789 76.3285 55.0062 80.8978 54.9993 85.4579H44.5544L44.4453 85.2637C44.5271 84.6254 48.086 78.5761 48.6587 77.5402C57.0788 62.1394 65.642 47.1086 74.7779 32.457H74.7711Z" fill="#1F304A"/>
<path d="M45.1273 32.5778C47.7044 32.5778 51.7678 32.4482 54.8018 32.4482C54.6245 37.5726 54.7336 48.1728 54.7541 53.3988C53.6087 55.4153 45.1204 64.961 44.1318 65.59C44.4727 55.0823 44.0023 43.3167 44.3227 32.587L45.1273 32.5685V32.5778Z" fill="#1F304A"/>
<path d="M43.443 87.4283L94.9996 0L43.1908 66.7552L32.8004 50.6792H20.4941L43.443 87.4283Z" fill="url(#paint0_linear_846_348)"/>
<defs>
<linearGradient id="paint0_linear_846_348" x1="35.1389" y1="79.9823" x2="74.6543" y2="28.0893" gradientUnits="userSpaceOnUse">
<stop stop-color="#B78F44"/>
<stop offset="1" stop-color="#D9B057"/>
</linearGradient>
</defs>
</svg>
