<svg width="61" height="57" viewBox="0 0 61 57" fill="none" xmlns="http://www.w3.org/2000/svg">
<path d="M1.21703 20.8048C2.19328 20.882 3.16952 20.9057 4.14139 20.8642C4.92502 20.9176 5.42846 20.983 6.20771 20.8404C6.57107 20.8404 6.95631 20.8404 7.31529 20.8642L11.5924 35.7897C12.306 38.2842 13.1027 41.2835 13.882 43.7068C14.5211 41.2835 15.2303 38.9019 15.8476 36.4786C16.5524 37.6011 19.7263 42.7862 20.3699 43.5167C19.1966 47.2822 18.0409 51.0656 16.907 54.8549C14.7794 54.837 12.6518 54.8489 10.5286 54.8905C8.28716 47.3476 5.95818 39.864 3.54164 32.4221C3.41906 31.935 3.25271 31.4065 3.10824 30.9254C2.3859 28.5378 1.46219 25.871 0.674184 23.5072L0.542842 23.0439C0.337086 22.3846 0.0175112 21.7966 0 21.1255C0.227645 20.7632 0.192627 20.882 0.674184 20.8166L1.21264 20.7988L1.21703 20.8048Z" fill="#1F304A"/>
<path d="M20.4489 20.9362L27.7336 20.8887C26.1444 25.7352 24.5772 31.0033 22.953 35.7429C22.2657 34.5669 21.7491 33.6107 20.8385 32.7554C19.9323 32.5653 18.0586 32.6248 17.043 32.5772L20.4445 20.9362H20.4489Z" fill="#1F304A"/>
<path d="M48.0115 20.8418L51.146 20.8715C50.5506 22 50.0297 22.974 49.3774 24.055L49.014 24.6964L48.0465 26.3416L47.7182 26.8643C46.0896 29.5607 43.2528 34.2112 41.8651 36.9849C43.5418 39.7585 45.0565 42.8113 46.6194 45.7097C48.261 48.7506 49.8939 51.7678 51.5006 54.8444C48.8389 54.8978 46.1816 54.9097 43.5199 54.88C42.5743 53.1814 41.7381 51.4114 40.8494 49.6593C39.6806 47.3549 38.4723 45.0801 37.3472 42.7341C36.5811 43.8923 35.9682 44.8366 35.2634 46.0839C35.3028 49.012 35.3203 51.946 35.3159 54.8741H28.6091L28.5391 54.7493C28.5916 54.3395 30.8768 50.4552 31.2445 49.79C36.6511 39.9011 42.1496 30.2497 48.0159 20.8418H48.0115Z" fill="#1F304A"/>
<path d="M28.9761 20.9171C30.6309 20.9171 33.2401 20.834 35.1882 20.834C35.0744 24.1244 35.1444 30.9308 35.1575 34.2865C34.4221 35.5813 28.9717 41.7107 28.3369 42.1145C28.5558 35.3675 28.2537 27.8127 28.4595 20.9231L28.9761 20.9112V20.9171Z" fill="#1F304A"/>
<path d="M27.8948 56.1384L60.9997 0L27.7329 42.864L21.0611 32.5415H13.1592L27.8948 56.1384Z" fill="url(#paint0_linear_925_75)"/>
<defs>
<linearGradient id="paint0_linear_925_75" x1="22.5627" y1="51.3573" x2="47.9358" y2="18.0364" gradientUnits="userSpaceOnUse">
<stop stop-color="#B78F44"/>
<stop offset="1" stop-color="#D9B057"/>
</linearGradient>
</defs>
</svg>
